<?xml version="1.0" encoding="UTF-8" standalone="no"?>
<svg
   width="770"
   height="121"
   viewBox="0 0 770 121"
   version="1.1"
   id="svg14"
   sodipodi:docname="FrontLogo.svg"
   xml:space="preserve"
   inkscape:version="1.2 (dc2aedaf03, 2022-05-15)"
   xmlns:inkscape="http://www.inkscape.org/namespaces/inkscape"
   xmlns:sodipodi="http://sodipodi.sourceforge.net/DTD/sodipodi-0.dtd"
   xmlns:xlink="http://www.w3.org/1999/xlink"
   xmlns="http://www.w3.org/2000/svg"
   xmlns:svg="http://www.w3.org/2000/svg"
   xmlns:figma="http://www.figma.com/figma/ns"><defs
     id="defs18"><linearGradient
       inkscape:collect="always"
       id="linearGradient2135"><stop
         style="stop-color:#a0a0a0;stop-opacity:1;"
         offset="0.03364284"
         id="stop2131" /><stop
         style="stop-color:#4b4b4b;stop-opacity:0;"
         offset="1"
         id="stop2133" /></linearGradient><path
       id="path0_fill"
       d="M 1.74498 5.47533C 1.74498 7.03335 1.62034 7.54082 1.29983 7.91474C 0.943119 8.23595 0.480024 8.41358 0 8.41331L 0.124642 9.3036C 0.86884 9.31366 1.59095 9.05078 2.15452 8.56466C 2.45775 8.19487 2.6834 7.76781 2.818 7.30893C 2.95261 6.85005 2.99341 6.36876 2.93798 5.89377L 2.93798 0L 1.74498 0L 1.74498 5.43972L 1.74498 5.47533Z" /><path
       id="path1_fill"
       d="M 5.50204 4.76309C 5.50204 5.43081 5.50204 6.02731 5.55545 6.54368L 4.496 6.54368L 4.42478 5.48423C 4.20318 5.85909 3.88627 6.16858 3.50628 6.38125C 3.12628 6.59392 2.69675 6.70219 2.26135 6.69503C 1.22861 6.69503 0 6.13415 0 3.84608L 0 0.0445149L 1.193 0.0445149L 1.193 3.6057C 1.193 4.84322 1.57583 5.67119 2.65309 5.67119C 2.87472 5.67358 3.09459 5.63168 3.29982 5.54796C 3.50505 5.46424 3.69149 5.34039 3.84822 5.18366C 4.00494 5.02694 4.1288 4.84049 4.21252 4.63527C 4.29623 4.43004 4.33813 4.21016 4.33575 3.98853L 4.33575 0L 5.52874 0L 5.52874 4.72748L 5.50204 4.76309Z" /><path
       id="path2_fill"
       d="M 0.0534178 2.27264C 0.0534178 1.44466 0.0534178 0.768036 0 0.153731L 1.06836 0.153731L 1.12177 1.2666C 1.3598 0.864535 1.70247 0.534594 2.11325 0.311954C 2.52404 0.0893145 2.98754 -0.0176786 3.45435 0.00238095C 5.03908 0.00238095 6.23208 1.32892 6.23208 3.30538C 6.23208 5.63796 4.7987 6.79535 3.24958 6.79535C 2.85309 6.81304 2.45874 6.7281 2.10469 6.54874C 1.75064 6.36937 1.44888 6.10166 1.22861 5.77151L 1.22861 5.77151L 1.22861 9.33269L 0.0534178 9.33269L 0.0534178 2.29935L 0.0534178 2.27264ZM 1.22861 4.00872C 1.23184 4.17026 1.24972 4.33117 1.28203 4.48948C 1.38304 4.88479 1.61299 5.23513 1.93548 5.48506C 2.25798 5.735 2.65461 5.87026 3.06262 5.86944C 4.31794 5.86944 5.05689 4.8456 5.05689 3.3588C 5.05689 2.05897 4.36246 0.946096 3.10714 0.946096C 2.61036 0.986777 2.14548 1.20726 1.79965 1.5662C 1.45382 1.92514 1.25079 2.3979 1.22861 2.89585L 1.22861 4.00872Z" /><path
       id="path3_fill"
       d="M 1.31764 0.0178059L 2.75102 3.85499C 2.90237 4.28233 3.06262 4.7987 3.16946 5.18153C 3.2941 4.7898 3.42764 4.29123 3.5879 3.82828L 4.88773 0.0178059L 6.14305 0.0178059L 4.36246 4.64735C 3.47216 6.87309 2.92908 8.02158 2.11 8.71601C 1.69745 9.09283 1.19448 9.35658 0.649917 9.48166L 0.356119 8.48453C 0.736886 8.35942 1.09038 8.16304 1.39777 7.90584C 1.8321 7.55188 2.17678 7.10044 2.4038 6.5882C 2.45239 6.49949 2.48551 6.40314 2.50173 6.3033C 2.49161 6.19586 2.46457 6.0907 2.42161 5.9917L 0 0L 1.29983 0L 1.31764 0.0178059Z" /><path
       id="path4_fill"
       d="M 2.19013 0L 2.19013 1.86962L 3.8995 1.86962L 3.8995 2.75992L 2.19013 2.75992L 2.19013 6.26769C 2.19013 7.06896 2.42161 7.53191 3.08043 7.53191C 3.31442 7.53574 3.54789 7.5088 3.77486 7.45179L 3.82828 8.34208C 3.48794 8.45999 3.12881 8.51431 2.76882 8.50234C 2.53042 8.51726 2.29161 8.48043 2.06878 8.39437C 1.84595 8.30831 1.64438 8.17506 1.47789 8.00377C 1.11525 7.51873 0.949826 6.91431 1.01494 6.31221L 1.01494 2.75102L 0 2.75102L 0 1.86072L 1.03274 1.86072L 1.03274 0.275992L 2.19013 0Z" /><path
       id="path5_fill"
       d="M 1.17716 3.57899C 1.153 3.88093 1.19468 4.18451 1.29933 4.46876C 1.40398 4.75301 1.5691 5.01114 1.78329 5.22532C 1.99747 5.43951 2.2556 5.60463 2.53985 5.70928C 2.8241 5.81393 3.12768 5.85561 3.42962 5.83145C 4.04033 5.84511 4.64706 5.72983 5.21021 5.49313L 5.41498 6.38343C 4.72393 6.66809 3.98085 6.80458 3.23375 6.78406C 2.79821 6.81388 2.36138 6.74914 1.95322 6.59427C 1.54505 6.43941 1.17522 6.19809 0.869071 5.88688C 0.562928 5.57566 0.327723 5.2019 0.179591 4.79125C 0.0314584 4.38059 -0.0260962 3.94276 0.0108748 3.50777C 0.0108748 1.54912 1.17716 0 3.0824 0C 5.21911 0 5.75329 1.86962 5.75329 3.06262C 5.76471 3.24644 5.76471 3.43079 5.75329 3.61461L 1.15046 3.61461L 1.17716 3.57899ZM 4.66713 2.6887C 4.70149 2.45067 4.68443 2.20805 4.61709 1.97718C 4.54976 1.74631 4.43372 1.53255 4.2768 1.35031C 4.11987 1.16808 3.92571 1.0216 3.70739 0.920744C 3.48907 0.81989 3.25166 0.767006 3.01118 0.765656C 2.52201 0.801064 2.06371 1.01788 1.72609 1.37362C 1.38847 1.72935 1.19588 2.19835 1.18607 2.6887L 4.66713 2.6887Z" /><path
       id="path6_fill"
       d="M 0.0534178 2.19228C 0.0534178 1.42663 0.0534178 0.767806 0 0.162404L 1.06836 0.162404L 1.06836 1.43553L 1.12177 1.43553C 1.23391 1.04259 1.4656 0.694314 1.78468 0.439049C 2.10376 0.183783 2.4944 0.034196 2.90237 0.0110538C 3.01466 -0.00368459 3.12839 -0.00368459 3.24068 0.0110538L 3.24068 1.12393C 3.10462 1.10817 2.9672 1.10817 2.83114 1.12393C 2.427 1.13958 2.04237 1.30182 1.7491 1.58035C 1.45583 1.85887 1.27398 2.23462 1.23751 2.63743C 1.20422 2.8196 1.18635 3.00425 1.1841 3.18941L 1.1841 6.65267L 0.00890297 6.65267L 0.00890297 2.20118L 0.0534178 2.19228Z" /><path
       id="path7_fill"
       d="M 6.03059 2.83565C 6.06715 3.43376 5.92485 4.02921 5.6218 4.54615C 5.31875 5.0631 4.86869 5.47813 4.32893 5.73839C 3.78917 5.99864 3.18416 6.09233 2.59097 6.00753C 1.99778 5.92272 1.44326 5.66326 0.998048 5.26219C 0.552837 4.86113 0.23709 4.33661 0.0910307 3.75546C -0.0550287 3.17431 -0.0247891 2.56283 0.177897 1.99893C 0.380583 1.43503 0.746541 0.944221 1.22915 0.589037C 1.71176 0.233853 2.28918 0.0303686 2.88784 0.00450543C 3.28035 -0.0170932 3.67326 0.0391144 4.04396 0.169896C 4.41467 0.300677 4.75587 0.503453 5.04794 0.766561C 5.34 1.02967 5.57718 1.34792 5.74582 1.70301C 5.91446 2.0581 6.01124 2.44303 6.03059 2.83565L 6.03059 2.83565Z" /><path
       id="path8_fill"
       d="M 18.6962 7.12238C 10.6836 7.12238 3.64131 4.24672 0 0C 1.41284 3.82041 3.96215 7.1163 7.30479 9.44404C 10.6474 11.7718 14.623 13.0196 18.6962 13.0196C 22.7695 13.0196 26.745 11.7718 30.0877 9.44404C 33.4303 7.1163 35.9796 3.82041 37.3925 4.0486e-13C 33.7601 4.24672 26.7445 7.12238 18.6962 7.12238Z" /><path
       id="path9_fill"
       d="M 18.6962 5.89725C 26.7089 5.89725 33.7512 8.77291 37.3925 13.0196C 35.9796 9.19922 33.4303 5.90333 30.0877 3.57559C 26.745 1.24785 22.7695 4.0486e-13 18.6962 0C 14.623 4.0486e-13 10.6474 1.24785 7.30479 3.57559C 3.96215 5.90333 1.41284 9.19922 0 13.0196C 3.64131 8.76401 10.648 5.89725 18.6962 5.89725Z" /><path
       id="path10_fill"
       d="M 7.59576 3.56656C 7.64276 4.31992 7.46442 5.07022 7.08347 5.72186C 6.70251 6.3735 6.13619 6.89698 5.45666 7.22561C 4.77713 7.55424 4.01515 7.67314 3.26781 7.56716C 2.52046 7.46117 1.82158 7.13511 1.26021 6.63051C 0.698839 6.12591 0.300394 5.46561 0.115637 4.73375C -0.0691191 4.00188 -0.0318219 3.23159 0.222777 2.52099C 0.477376 1.8104 0.93775 1.19169 1.54524 0.743685C 2.15274 0.295678 2.87985 0.0386595 3.63394 0.00537589C 4.12793 -0.0210471 4.62229 0.0501173 5.08878 0.214803C 5.55526 0.37949 5.98473 0.63447 6.35264 0.965179C 6.72055 1.29589 7.01971 1.69584 7.233 2.1422C 7.4463 2.58855 7.56957 3.07256 7.59576 3.56656L 7.59576 3.56656Z" /><path
       id="path11_fill"
       d="M 2.25061 4.37943C 1.81886 4.39135 1.39322 4.27535 1.02722 4.04602C 0.661224 3.81668 0.371206 3.48424 0.193641 3.09052C 0.0160762 2.69679 -0.0411078 2.25935 0.0292804 1.83321C 0.0996686 1.40707 0.294486 1.01125 0.589233 0.695542C 0.883981 0.37983 1.2655 0.158316 1.68581 0.0588577C 2.10611 -0.0406005 2.54644 -0.0135622 2.95143 0.136572C 3.35641 0.286707 3.70796 0.553234 3.96186 0.902636C 4.21577 1.25204 4.3607 1.66872 4.37842 2.10027C 4.39529 2.6838 4.18131 3.25044 3.78293 3.67715C 3.38455 4.10387 2.83392 4.35623 2.25061 4.37943Z" /><linearGradient
       id="linearGradient11301"
       inkscape:collect="always"><stop
         id="stop11303"
         offset="0"
         style="stop-color:#ffe052;stop-opacity:1" /><stop
         id="stop11305"
         offset="1"
         style="stop-color:#ffc331;stop-opacity:1" /></linearGradient><linearGradient
       gradientUnits="userSpaceOnUse"
       y2="168.1012"
       x2="147.77737"
       y1="111.92053"
       x1="89.136749"
       id="linearGradient11307"
       xlink:href="#linearGradient11301"
       inkscape:collect="always"
       gradientTransform="translate(2,-20)" /><linearGradient
       id="linearGradient9515"
       inkscape:collect="always"><stop
         id="stop9517"
         offset="0"
         style="stop-color:#387eb8;stop-opacity:1" /><stop
         id="stop9519"
         offset="1"
         style="stop-color:#366994;stop-opacity:1" /></linearGradient><linearGradient
       gradientUnits="userSpaceOnUse"
       y2="131.85291"
       x2="110.14919"
       y1="77.070274"
       x1="55.549179"
       id="linearGradient9521"
       xlink:href="#linearGradient9515"
       inkscape:collect="always"
       gradientTransform="translate(2,-20)" /><radialGradient
       inkscape:collect="always"
       xlink:href="#linearGradient2135"
       id="radialGradient2137-0"
       cx="136.64461"
       cy="61.149643"
       fx="136.64461"
       fy="61.149643"
       r="2.5243444"
       gradientTransform="matrix(1,0,0,19.939489,0,-1158.143)"
       gradientUnits="userSpaceOnUse" /></defs><sodipodi:namedview
     id="namedview16"
     pagecolor="#ffffff"
     bordercolor="#000000"
     borderopacity="0.25"
     inkscape:showpageshadow="2"
     inkscape:pageopacity="0.0"
     inkscape:pagecheckerboard="0"
     inkscape:deskcolor="#d1d1d1"
     showgrid="false"
     inkscape:zoom="2.8284271"
     inkscape:cx="569.92807"
     inkscape:cy="13.788582"
     inkscape:window-width="1920"
     inkscape:window-height="1052"
     inkscape:window-x="0"
     inkscape:window-y="28"
     inkscape:window-maximized="1"
     inkscape:current-layer="group-2" /><!-- Generated by Pixelmator Pro 1.5.5 --><g
     id="group"
     transform="matrix(0.93188011,0,0,0.93188011,156.31144,5.9406877)"
     style="stroke-width:1.0731"><path
       id="Path"
       d="m 63.1,28.3 -6.6,6.6 c 10.8,10.8 10.8,28.2 0,38.8 C 45.7,84.5 28.3,84.5 17.7,73.7 6.9,62.9 6.9,45.5 17.7,34.9 L 34.8,17.8 37.2,15.4 V 2.5 L 11.4,28.3 c -14.4,14.4 -14.4,37.6 0,52 14.4,14.4 37.6,14.4 51.7,0 14.4,-14.5 14.4,-37.6 0,-52 z"
       fill="#ee4c2c"
       fill-opacity="1"
       stroke="none"
       style="stroke-width:1.15154" /><path
       id="Path-1"
       d="m 55,21.9 c 0,2.651 -2.149,4.8 -4.8,4.8 -2.651,0 -4.8,-2.149 -4.8,-4.8 0,-2.651 2.149,-4.8 4.8,-4.8 2.651,0 4.8,2.149 4.8,4.8 z"
       fill="#ee4c2c"
       fill-opacity="1"
       stroke="none"
       style="stroke-width:1.15154" /></g><g
     id="group-1"><g
       id="group-2"><path
         id="Path-2"
         d="M 277.26948,63.064939 H 266.92561 V 89.62352 h -7.82779 V 14.048045 h 19.01035 c 19.84905,0 29.35423,9.784741 29.35423,23.483379 0.27956,16.86703 -11.46213,25.533515 -30.19292,25.533515 z m 0.83869,-41.468665 c -0.83869,0 -10.90299,0 -10.90299,0 v 34.759128 l 10.62343,-0.279564 c 14.25776,-0.279564 22.08556,-5.870845 22.08556,-17.612534 0,-10.996185 -7.8278,-16.86703 -21.806,-16.86703 z"
         fill="#000000"
         fill-opacity="1"
         stroke="none"
         style="stroke-width:1" /><path
         id="Path-3"
         d="m 342.50109,89.343956 -4.47303,12.021254 c -5.03215,13.41907 -10.34387,17.33297 -17.89209,17.33297 -4.19346,0 -7.26867,-1.11826 -10.62344,-2.51608 l 2.23651,-6.9891 c 2.51608,1.39782 5.31172,2.51608 8.38693,2.51608 4.19346,0 7.26866,-2.23651 11.46212,-12.85995 l 3.63433,-9.784738 -21.52643,-54.608173 h 8.10736 l 17.33297,45.662126 17.05341,-45.662126 h 7.82779 z"
         fill="#000000"
         fill-opacity="1"
         stroke="none"
         style="stroke-width:1" /><path
         id="Path-4"
         d="m 389.56103,21.596274 v 68.30681 h -7.82779 v -68.30681 h -26.55858 v -7.268665 h 60.75858 v 7.268665 c -0.0932,0 -26.37221,0 -26.37221,0 z"
         fill="#000000"
         fill-opacity="1"
         stroke="none"
         style="stroke-width:1" /><path
         id="Path-5"
         d="m 438.0188,91.300904 c -15.37602,0 -26.55858,-11.462123 -26.55858,-29.074657 0,-17.612534 11.74169,-29.354224 27.39727,-29.354224 15.65559,0 26.55858,11.462126 26.55858,29.07466 -0.27956,17.612534 -12.02125,29.354221 -27.39727,29.354221 z m 0.27956,-51.43978 c -11.74169,0 -19.28991,9.225613 -19.28991,22.365123 0,13.419073 7.82779,22.644686 19.56948,22.644686 11.74169,0 19.28992,-9.225613 19.28992,-22.365122 0,-13.698638 -7.8278,-22.644687 -19.56949,-22.644687 z"
         fill="#000000"
         fill-opacity="1"
         stroke="none"
         style="stroke-width:1" /><path
         id="Path-6"
         d="m 484.14687,89.903084 h -7.54823 V 34.456219 l 7.54823,-1.677384 v 11.74169 c 3.63433,-6.989101 8.94604,-11.74169 16.21471,-11.74169 3.63433,0 6.9891,1.118256 9.78474,2.516077 l -1.95695,6.9891 c -2.51607,-1.39782 -5.31171,-2.516076 -8.38692,-2.516076 -5.87084,0 -11.18256,4.473025 -15.65558,14.257766 z"
         fill="#000000"
         fill-opacity="1"
         stroke="none"
         style="stroke-width:1" /><path
         id="Path-7"
         d="m 539.59373,91.300904 c -16.77384,0 -27.11771,-12.021251 -27.11771,-29.074657 0,-17.33297 11.46213,-29.354224 27.11771,-29.354224 6.70954,0 12.58038,1.677384 17.33297,4.752589 l -1.95695,6.709537 c -4.19346,-2.795641 -9.50517,-4.473025 -15.37602,-4.473025 -12.02125,0 -19.28992,8.946049 -19.28992,22.085559 0,13.419073 7.8278,22.365122 19.56949,22.365122 5.59128,0 11.18256,-1.677384 15.37602,-4.473024 l 1.67738,6.989101 c -5.03215,2.795638 -10.903,4.473022 -17.33297,4.473022 z"
         fill="#000000"
         fill-opacity="1"
         stroke="none"
         style="stroke-width:1" /><path
         id="Path-8"
         d="M 603.14796,89.903084 V 54.025702 c 0,-9.784741 -3.9139,-13.978202 -11.74169,-13.978202 -6.42998,0 -12.58039,3.354768 -17.05341,7.827793 v 42.027791 h -7.54823 V 8.456764 l 7.54823,-1.6773842 V 41.818072 c 5.87084,-5.870844 13.13951,-8.666485 19.28992,-8.666485 10.62343,0 17.33297,6.989101 17.33297,19.010355 v 37.83433 h -7.82779 z"
         fill="#000000"
         fill-opacity="1"
         stroke="none"
         style="stroke-width:1" /><g
         id="g878"
         style="mix-blend-mode:normal;stroke-width:0.430022"
         figma:type="group"
         transform="matrix(2.3254592,0,0,2.3254592,-3147.3514,-5703.9229)"><g
           id="Group"
           style="mix-blend-mode:normal;stroke-width:0.430022"
           figma:type="group"><g
             id="g"
             style="mix-blend-mode:normal;stroke-width:0.430022"
             figma:type="group"><g
               id="path"
               style="mix-blend-mode:normal;stroke-width:0.430022"
               figma:type="group"><g
                 id="path9 fill"
                 style="mix-blend-mode:normal;stroke-width:0.430022"
                 figma:type="vector"><use
                   xlink:href="#path0_fill"
                   transform="translate(1640.54,2474.36)"
                   fill="#4e4e4e"
                   style="mix-blend-mode:normal;stroke-width:0.165092"
                   id="use815" /></g></g><g
               id="g822"
               style="mix-blend-mode:normal;stroke-width:0.430022"
               figma:type="group"><g
                 id="path10 fill"
                 style="mix-blend-mode:normal;stroke-width:0.430022"
                 figma:type="vector"><use
                   xlink:href="#path1_fill"
                   transform="translate(1645.68,2474.37)"
                   fill="#4e4e4e"
                   style="mix-blend-mode:normal;stroke-width:0.165092"
                   id="use819" /></g></g><g
               id="g827"
               style="mix-blend-mode:normal;stroke-width:0.430022"
               figma:type="group"><g
                 id="path11 fill"
                 style="mix-blend-mode:normal;stroke-width:0.430022"
                 figma:type="vector"><use
                   xlink:href="#path2_fill"
                   transform="translate(1653.39,2474.26)"
                   fill="#4e4e4e"
                   style="mix-blend-mode:normal;stroke-width:0.165092"
                   id="use824" /></g></g><g
               id="g832"
               style="mix-blend-mode:normal;stroke-width:0.430022"
               figma:type="group"><g
                 id="path12 fill"
                 style="mix-blend-mode:normal;stroke-width:0.430022"
                 figma:type="vector"><use
                   xlink:href="#path3_fill"
                   transform="translate(1660.43,2474.39)"
                   fill="#4e4e4e"
                   style="mix-blend-mode:normal;stroke-width:0.165092"
                   id="use829" /></g></g><g
               id="g837"
               style="mix-blend-mode:normal;stroke-width:0.430022"
               figma:type="group"><g
                 id="path13 fill"
                 style="mix-blend-mode:normal;stroke-width:0.430022"
                 figma:type="vector"><use
                   xlink:href="#path4_fill"
                   transform="translate(1667.55,2472.54)"
                   fill="#4e4e4e"
                   style="mix-blend-mode:normal;stroke-width:0.165092"
                   id="use834" /></g></g><g
               id="g842"
               style="mix-blend-mode:normal;stroke-width:0.430022"
               figma:type="group"><g
                 id="path14 fill"
                 style="mix-blend-mode:normal;stroke-width:0.430022"
                 figma:type="vector"><use
                   xlink:href="#path5_fill"
                   transform="translate(1672.47,2474.29)"
                   fill="#4e4e4e"
                   style="mix-blend-mode:normal;stroke-width:0.165092"
                   id="use839" /></g></g><g
               id="g847"
               style="mix-blend-mode:normal;stroke-width:0.430022"
               figma:type="group"><g
                 id="path15 fill"
                 style="mix-blend-mode:normal;stroke-width:0.430022"
                 figma:type="vector"><use
                   xlink:href="#path6_fill"
                   transform="translate(1679.98,2474.24)"
                   fill="#4e4e4e"
                   style="mix-blend-mode:normal;stroke-width:0.165092"
                   id="use844" /></g></g></g></g><g
           id="g876"
           style="mix-blend-mode:normal;stroke-width:0.430022"
           figma:type="group"><g
             id="g854"
             style="mix-blend-mode:normal;stroke-width:0.430022"
             figma:type="group"><g
               id="path16 fill"
               style="mix-blend-mode:normal;stroke-width:0.430022"
               figma:type="vector"><use
                 xlink:href="#path7_fill"
                 transform="translate(1673.48,2453.69)"
                 fill="#767677"
                 style="mix-blend-mode:normal;stroke-width:0.165092"
                 id="use851" /></g></g><g
             id="g859"
             style="mix-blend-mode:normal;stroke-width:0.430022"
             figma:type="group"><g
               id="path17 fill"
               style="mix-blend-mode:normal;stroke-width:0.430022"
               figma:type="vector"><use
                 xlink:href="#path8_fill"
                 transform="translate(1643.21,2484.27)"
                 fill="#f37726"
                 style="mix-blend-mode:normal;stroke-width:0.165092"
                 id="use856" /></g></g><g
             id="g864"
             style="mix-blend-mode:normal;stroke-width:0.430022"
             figma:type="group"><g
               id="path18 fill"
               style="mix-blend-mode:normal;stroke-width:0.430022"
               figma:type="vector"><use
                 xlink:href="#path9_fill"
                 transform="translate(1643.21,2457.88)"
                 fill="#f37726"
                 style="mix-blend-mode:normal;stroke-width:0.165092"
                 id="use861" /></g></g><g
             id="g869"
             style="mix-blend-mode:normal;stroke-width:0.430022"
             figma:type="group"><g
               id="path19 fill"
               style="mix-blend-mode:normal;stroke-width:0.430022"
               figma:type="vector"><use
                 xlink:href="#path10_fill"
                 transform="translate(1643.28,2496.09)"
                 fill="#9e9e9e"
                 style="mix-blend-mode:normal;stroke-width:0.165092"
                 id="use866" /></g></g><g
             id="g874"
             style="mix-blend-mode:normal;stroke-width:0.430022"
             figma:type="group"><g
               id="path20 fill"
               style="mix-blend-mode:normal;stroke-width:0.430022"
               figma:type="vector"><use
                 xlink:href="#path11_fill"
                 transform="translate(1641.87,2458.43)"
                 fill="#616262"
                 style="mix-blend-mode:normal;stroke-width:0.165092"
                 id="use871" /></g></g></g></g><g
         id="g1894"
         transform="translate(-36.148075,-61.3918)"><path
           style="color:#000000;display:inline;overflow:visible;visibility:visible;opacity:1;fill:url(#linearGradient9521);fill-opacity:1;fill-rule:nonzero;stroke:none;stroke-width:1;stroke-linecap:butt;stroke-linejoin:miter;stroke-miterlimit:4;stroke-dasharray:none;stroke-dashoffset:0;stroke-opacity:1;marker:none;marker-start:none;marker-mid:none;marker-end:none"
           d="M 99.75,67.46875 C 71.718268,67.468752 73.46875,79.625 73.46875,79.625 L 73.5,92.21875 h 26.75 V 96 H 62.875 c 0,0 -17.9375,-2.034276 -17.9375,26.25 -2e-6,28.28427 15.65625,27.28125 15.65625,27.28125 h 9.34375 v -13.125 c 0,0 -0.503652,-15.65625 15.40625,-15.65625 15.9099,0 26.53125,0 26.53125,0 0,0 14.90625,0.24096 14.90625,-14.40625 0,-14.647206 0,-24.21875 0,-24.21875 0,-2e-6 2.26318,-14.65625 -27.03125,-14.65625 z M 85,75.9375 c 2.661429,-2e-6 4.8125,2.151071 4.8125,4.8125 2e-6,2.661429 -2.151071,4.8125 -4.8125,4.8125 -2.661429,2e-6 -4.8125,-2.151071 -4.8125,-4.8125 -2e-6,-2.661429 2.151071,-4.8125 4.8125,-4.8125 z"
           id="path8615" /><path
           id="path8620"
           d="m 100.5461,177.31485 c 28.03174,0 26.28125,-12.15625 26.28125,-12.15625 l -0.0312,-12.59375 h -26.75 v -3.78125 h 37.375 c 0,0 17.9375,2.03427 17.9375,-26.25001 10e-6,-28.284267 -15.65625,-27.281247 -15.65625,-27.281247 h -9.34375 v 13.124997 c 0,0 0.50366,15.65625 -15.40625,15.65625 -15.909902,0 -26.531252,0 -26.531252,0 0,0 -14.90625,-0.24096 -14.90625,14.40626 0,14.6472 0,24.21875 0,24.21875 0,0 -2.26318,14.65625 27.031252,14.65625 z m 14.75,-8.46875 c -2.66143,0 -4.8125,-2.15107 -4.8125,-4.8125 0,-2.66143 2.15107,-4.8125 4.8125,-4.8125 2.66143,0 4.8125,2.15107 4.8125,4.8125 1e-5,2.66143 -2.15107,4.8125 -4.8125,4.8125 z"
           style="color:#000000;display:inline;overflow:visible;visibility:visible;opacity:1;fill:url(#linearGradient11307);fill-opacity:1;fill-rule:nonzero;stroke:none;stroke-width:1;stroke-linecap:butt;stroke-linejoin:miter;stroke-miterlimit:4;stroke-dasharray:none;stroke-dashoffset:0;stroke-opacity:1;marker:none;marker-start:none;marker-mid:none;marker-end:none" /></g><path
         style="fill:url(#radialGradient2137-0);fill-opacity:1;stroke-width:0;paint-order:markers fill stroke"
         d="m 513.47128,180.33414 c -5.00721,-54.82713 0.98644,-100.668278 0.98644,-100.668278 3.00969,51.152208 2.775,45.704638 -0.98644,100.668278 z"
         id="path2129-7"
         sodipodi:nodetypes="ccc" /></g></g></svg>
